<?xml version="1.0" encoding="UTF-8"?>
<svg id="_图层_2" data-name="图层 2" xmlns="http://www.w3.org/2000/svg" viewBox="0 0 40 40">
  <defs>
    <style>
      .cls-1 {
        fill: #fff;
      }

      .cls-2 {
        fill: #231815;
      }
    </style>
  </defs>
  <g id="_换乘设置" data-name="换乘设置">
    <g>
      <path class="cls-2" d="M20,0c11.05,0,20,8.95,20,20,0,10.92-8.76,19.8-19.63,20h-.37c-2.76,0-5.38-.55-7.77-1.56C5.04,35.4,0,28.29,0,20,0,9.08,8.76.2,19.63,0h.37Z"/>
      <path class="cls-1" d="M20,4.44c-8.56,0-15.56,7-15.56,15.56,0,8.56,7,15.56,15.56,15.56,8.56,0,15.56-7,15.56-15.56,0-8.56-7-15.56-15.56-15.56Z"/>
      <path class="cls-2" d="M23.34,12.81l.06-3.63s0-.19.37-.27c.22-.03.44.03.61.16l6.26,4.65c.34.19.55.53.57.91,0,.33-.16.64-.43.82l-6.45,4.31c-.24.08-.5.1-.75.06-.37-.08-.37-.36-.37-.36l.07-3.39-6.19-.1s-4.9.58-4.93,2.42c0,0,.18-5.75,5.14-5.67M16.76,27.32l-.06,3.63s-.07.22-.47.27c-.18.02-.35-.03-.49-.15l-6.26-4.65c-.34-.19-.56-.53-.58-.92,0-.33.16-.64.44-.83l6.44-4.31c.19-.1.42-.12.63-.06.45.13.46.36.46.36l-.06,3.4,6.23.11s4.9-.58,4.93-2.42c0,0-.18,5.77-5.14,5.67"/>
    </g>
  </g>
</svg>